
<svg xmlns="http://www.w3.org/2000/svg" version="1.1" xmlns:xlink="http://www.w3.org/1999/xlink" preserveAspectRatio="none" x="0px" y="0px" width="200px" height="150px" viewBox="0 0 200 150">
<defs>
<g id="hull_0_Layer0_0_FILL">
<path fill="#80F6AF" stroke="none" d="
M -6.4 -7.3
L -4.75 8.95 4.7 8.95 6.35 -7.3 -6.4 -7.3 Z"/>

<path fill="#DE59CC" stroke="none" d="
M 11.15 5.15
L 4.7 8.95 2.75 34.3 2.75 73 5.6 70.05 5.6 70 11.15 5.15 Z"/>

<path fill="#A6DECC" stroke="none" d="
M 4.7 8.95
L 11.15 5.15 6.35 -7.3 4.7 8.95
M -17.2 -16.55
L -23.35 -19.4 -30.4 2.75 -17.2 5.15 -17.2 -16.55 Z"/>

<path fill="#8035E7" stroke="none" d="
M -2.3 34.3
L -2.3 73 2.75 73 2.75 34.3 -2.3 34.3 Z"/>

<path fill="#8080FF" stroke="none" d="
M -4.75 8.95
L -2.3 34.3 2.75 34.3 4.7 8.95 -4.75 8.95 Z"/>

<path fill="#2159CC" stroke="none" d="
M -4.75 8.95
L -11.2 5.15 -5.6 70 -2.3 73 -2.3 34.3 -4.75 8.95 Z"/>

<path fill="#52EDAF" stroke="none" d="
M -11.2 5.15
L -4.75 8.95 -6.4 -7.3 -11.2 5.15
M -37.45 5.15
L -30.4 2.75 -23.35 -19.4 -37.45 5.15 Z"/>

<path fill="#8009AF" stroke="none" d="
M -17.2 45.95
L -34.9 45.95 -43.4 53.95 -40.25 57.8 -17.2 57.8 -17.2 45.95
M 34.9 45.95
L 17.15 45.95 17.15 57.8 40.2 57.8 43.4 53.95 34.9 45.95 Z"/>

<path fill="#AA80F8" stroke="none" d="
M -34.9 45.95
L -17.2 45.95 -17.2 5.15 -30.4 2.75 -34.9 45.95 Z"/>

<path fill="#21A6CC" stroke="none" d="
M -30.4 2.75
L -37.45 5.15 -43.4 53.95 -34.9 45.95 -30.4 2.75 Z"/>

<path fill="#5890F8" fill-opacity="0.6" stroke="none" d="
M -25.8 -73
L -45.05 -63.1 -55.15 5.15 -98.15 32.85 -90.65 63.7 -44.8 68.35 -43.4 53.95 -37.45 5.15 -23.35 -19.4 -25.8 -73 Z"/>

<path fill="#ADEDAF" stroke="none" d="
M 30.4 2.75
L 37.4 5.15 23.3 -19.4 30.4 2.75 Z"/>

<path fill="#DEA6CC" stroke="none" d="
M 30.4 2.75
L 34.9 45.95 43.4 53.95 37.4 5.15 30.4 2.75 Z"/>

<path fill="#5580F8" stroke="none" d="
M 17.15 5.15
L 17.15 45.95 34.9 45.95 30.4 2.75 17.15 5.15 Z"/>

<path fill="#A790F8" stroke="none" d="
M 25.75 -73
L 23.3 -19.4 37.4 5.15 43.4 53.95 44.8 68.35 90.6 63.7 98.15 32.85 55.15 5.15 45 -63.1 25.75 -73 Z"/>

<path fill="#59DECC" stroke="none" d="
M 23.3 -19.4
L 17.15 -16.55 17.15 5.15 30.4 2.75 23.3 -19.4 Z"/>
</g>

<g id="canopy_0_Layer0_0_FILL">
<path fill="#80CAE7" stroke="none" d="
M 4 4.65
L 4.75 -12.65 -4.7 -12.65 -4 4.65 4 4.65 Z"/>

<path fill="#DEA6CC" stroke="none" d="
M 4 4.65
L 6.45 3.8 4.75 -12.65 4 4.65 Z"/>

<path fill="#C837CC" stroke="none" d="
M 4 4.65
L 2.8 12.7 6.45 3.8 4 4.65 Z"/>

<path fill="#21A6CC" stroke="none" d="
M -6.45 3.7
L -4 4.65 -4.7 -12.65 -6.45 3.7 Z"/>

<path fill="#801ACC" stroke="none" d="
M -4 4.65
L -2.25 12.7 2.8 12.7 4 4.65 -4 4.65 Z"/>

<path fill="#3737CC" stroke="none" d="
M -6.45 3.7
L -2.25 12.7 -4 4.65 -6.45 3.7 Z"/>
</g>

<g id="stubs_0_Layer0_0_FILL">
<path fill="#8009AF" stroke="none" d="
M -8.6 12.65
L -8.95 8.55 -17.15 8.55 -17.15 12.65 -8.6 12.65
M 17.2 8.55
L 9.05 8.55 8.7 12.65 17.2 12.65 17.2 8.55 Z"/>

<path fill="#8080FF" stroke="none" d="
M -10.55 -10.55
L -17.15 -10.55 -17.15 8.55 -8.95 8.55 -10.55 -10.55
M 17.2 -10.55
L 10.65 -10.55 9.05 8.55 17.2 8.55 17.2 -10.55 Z"/>

<path fill="#80FE90" stroke="none" d="
M -10.75 -12.65
L -17.15 -12.65 -17.15 -10.55 -10.55 -10.55 -10.75 -12.65
M 10.8 -12.65
L 10.65 -10.55 17.2 -10.55 17.2 -12.65 10.8 -12.65 Z"/>
</g>

<g id="highlight_0_Layer0_0_FILL">
<path fill="#4FF490" stroke="none" d="
M -6.15 -2.7
L -6.4 -4.95 -11.2 7.5 -6.15 -2.7
M -45.05 -60.75
L -42.1 -58.35 -25.8 -70.65 -45.05 -60.75 Z"/>

<path fill="#B0F490" stroke="none" d="
M 6.35 -4.95
L 6.15 -2.7 11.15 7.5 6.35 -4.95
M 45 -60.7
L 45 -60.75 25.9 -70.55 42.1 -58.35 45 -60.7 Z"/>

<path fill="#80FE90" stroke="none" d="
M 6.15 -2.7
L 6.35 -4.95 -6.4 -4.95 -6.15 -2.7 6.15 -2.7 Z"/>

<path fill="#7F0190" stroke="none" d="
M 17.15 47.05
L 17.15 48.3 34.85 48.3 32.8 47.05 17.15 47.05
M -17.2 47.05
L -32.85 47.05 -34.9 48.3 -17.2 48.3 -17.2 47.05 Z"/>

<path fill="#F4B090" stroke="none" d="
M 28.6 5.45
L 30.35 5.1 30.4 5.1 23.3 -17.05 28.6 5.45
M 45 -60.7
L 42.1 -58.35 49.85 9.6 55.15 7.5 45 -60.7 Z"/>

<path fill="#FE8090" stroke="none" d="
M 30.35 5.1
L 28.6 5.45 32.8 47.05 34.85 48.3 34.9 48.3 30.4 5.1 30.35 5.1 Z"/>

<path fill="#0BB090" stroke="none" d="
M -30.4 5.1
L -28.65 5.45 -23.35 -17.05 -30.4 5.1
M -42.1 -58.35
L -45.05 -60.75 -55.15 7.5 -49.85 9.6 -42.1 -58.35 Z"/>

<path fill="#018090" stroke="none" d="
M -30.4 5.1
L -34.9 48.3 -32.85 47.05 -28.65 5.45 -30.4 5.1 Z"/>

<path fill="#0B4F90" stroke="none" d="
M -90.3 37.05
L -98.15 35.2 -90.65 66.05 -88 62.85 -90.3 37.05 Z"/>

<path fill="#4F0B90" stroke="none" d="
M -44.8 70.7
L -44.5 68 -88 62.85 -90.65 66.05 -44.8 70.7 Z"/>

<path fill="#26D990" stroke="none" d="
M -49.85 9.6
L -55.15 7.5 -98.15 35.2 -90.3 37.05 -49.85 9.6 Z"/>

<path fill="#B00B90" stroke="none" d="
M 90.6 66.05
L 90.6 66 88 62.85 44.55 68 44.8 70.7 90.6 66.05 Z"/>

<path fill="#F44F90" stroke="none" d="
M 98.15 35.2
L 90.3 37.05 88 62.85 90.6 66 98.15 35.2 Z"/>

<path fill="#D9D990" stroke="none" d="
M 90.3 37.05
L 98.15 35.2 55.15 7.5 49.85 9.6 90.3 37.05 Z"/>
</g>
</defs>

<g transform="matrix( 1, 0, 0, 1, 100,75) ">
<g transform="matrix( 1, 0, 0, 1, 0,0) ">
<use xlink:href="#hull_0_Layer0_0_FILL"/>
</g>
</g>

<g transform="matrix( 1, 0, 0, 1, 99.95,96.6) ">
<g transform="matrix( 1, 0, 0, 1, 0,0) ">
<use xlink:href="#canopy_0_Layer0_0_FILL"/>
</g>
</g>

<g transform="matrix( 1, 0, 0, 1, 99.95,97.25) ">
<g transform="matrix( 1, 0, 0, 1, 0,0) ">
<use xlink:href="#stubs_0_Layer0_0_FILL"/>
</g>
</g>

<g transform="matrix( 1, 0, 0, 1, 100,72.65) ">
<g transform="matrix( 1, 0, 0, 1, 0,0) ">
<use xlink:href="#highlight_0_Layer0_0_FILL"/>
</g>
</g>
</svg>
